<svg id="Layer_1" data-name="Layer 1" xmlns="http://www.w3.org/2000/svg" xmlns:xlink="http://www.w3.org/1999/xlink"
    viewBox="0 0 564.63 103.33">
    <defs>
        <style>
            .cls-1 {
                fill: url(#linear-gradient);
            }

            .cls-2 {
                fill: url(#linear-gradient-2);
            }

            .cls-3 {
                fill: #0b1a28;
            }
        </style>
        <linearGradient id="linear-gradient" x1="92.43" y1="84.05" x2="92.43" y2="0.01" gradientUnits="userSpaceOnUse">
            <stop offset="0" stop-color="#00cc7e" />
            <stop offset="1" stop-color="#00fc8f" />
        </linearGradient>
        <linearGradient id="linear-gradient-2" x1="21.24" y1="80.13" x2="21.24" y2="42.03"
            gradientUnits="userSpaceOnUse">
            <stop offset="0" stop-color="#02a05f" />
            <stop offset="1" stop-color="#00cc7e" />
        </linearGradient>
    </defs>
    <path class="cls-1"
        d="M153.28,0H75.6A15,15,0,0,0,61.42,10.13L39.8,73c-2.68,6.73-5.11,9-8.38,10.06a.5.5,0,0,0,.16,1h77.77a15,15,0,0,0,14.19-10.13l19.8-57.63,2.23-6.48C148.06,4,150.39,2,153.45,1A.5.5,0,0,0,153.28,0Z" />
    <path class="cls-2"
        d="M36.23,42H.5a.5.5,0,0,0-.16,1C3.56,44,6,46.28,8.62,52.79l7.26,21.13.06.18c2.93,8.21,14.68,8,17.52-.28l8.27-24.07C44.16,42.77,40.22,42,36.23,42Z" />
    <path class="cls-3"
        d="M217.4,36.54H205.81V84.05h-17.9V36.54h-8.44V23.94h8.44V19.53C187.91,6.43,194.34,0,207.57,0h9.83V14.24h-5.29c-4.16,0-6.3,1.89-6.3,5.42v4.28H217.4Z" />
    <path class="cls-3" d="M241.79,84.05H223.9V0h17.89Z" />
    <path class="cls-3"
        d="M308.89,23.19,287.72,84.55c-3.4,10-5.42,13.48-8.57,15.75-2.9,2.14-6.93,3-13.61,3H255.08V89.84h5.3c6.3,0,9.19-2.39,9.19-7.68,0-2.15-.12-2.52-2.26-7.82l-20-51.15h19.15L275.37,51c1.76,5.67,1.76,5.8,3.15,10.84l.76,2.39c.75-4,1.76-8.19,3.15-13.6l7.94-27.47Z" />
    <path class="cls-3"
        d="M369.93,84.05H352.8V77.5c-4.54,5.92-9.33,8.18-16.76,8.18-16,0-26.71-12.72-26.71-32s10.83-32.26,27.21-32.26c6.55,0,11.22,1.89,15.5,6.3V0h17.89Zm-43-30.5c0,10.71,5,17.64,12.85,17.64s12.85-7,12.85-17.38c0-10.84-5-17.9-12.85-17.9S327,42.84,327,53.55Z" />
    <path class="cls-3"
        d="M439.74,54.06c0,18.39-13.61,31.62-32.39,31.62S375.1,72.45,375.1,53.55s13.35-32,32.25-32C426.63,21.55,439.74,34.65,439.74,54.06Zm-46.63-.51c0,11.47,5.17,17.9,14.37,17.9,8.95,0,14.24-6.43,14.24-17.52,0-11.72-5-18.14-14.37-18.14C398.28,35.79,393.11,42.21,393.11,53.55Z" />
    <path class="cls-3"
        d="M486.36,45.11c-1-5.8-5-9.07-11.09-9.07-8.19,0-12.6,6.17-12.6,17.26,0,11.72,4.41,17.89,12.72,17.89,6.43,0,10-3.27,11.34-10.45l17.39.88C501.6,77,491,85.68,474.89,85.68c-18.52,0-30.24-12.34-30.24-31.87,0-20.17,11.59-32.26,30.87-32.26,15.88,0,26.71,9.07,27.85,23.56Z" />
    <path class="cls-3"
        d="M546.48,41.46c-.75-4.54-4.41-6.93-10.33-6.93-5.17,0-8.57,2-8.57,5,0,2.26,1.76,3.4,7.43,4.66l11.22,2.39c7.43,1.51,11.21,3.15,13.86,5.92,2.9,2.78,4.54,7.31,4.54,12.23,0,12.85-10.46,20.91-27.35,20.91s-27.34-7.93-28.35-21.42h16.76c1,5.8,4.79,8.45,12,8.45,5.67,0,9.33-2.27,9.33-5.93,0-2.89-2-4.41-6.81-5.54l-11.09-2.52c-13.35-2.9-18.52-7.81-18.52-17.52,0-12.22,9.7-19.65,26-19.65,15.62,0,25.07,7.05,26.71,19.91Z" />
</svg>